<svg xmlns="http://www.w3.org/2000/svg" width="512" height="512" viewBox="0 0 512 512">
  
    <defs>
      <linearGradient id="bg" x1="0" y1="0" x2="1" y2="1">
        <stop offset="0" stop-color="#1ea7ec"/>
        <stop offset="1" stop-color="#075a97"/>
      </linearGradient>
      <radialGradient id="glow" cx="0.25" cy="0.2" r="0.9">
        <stop offset="0" stop-color="#ffffff" stop-opacity="0.28"/>
        <stop offset="0.55" stop-color="#ffffff" stop-opacity="0"/>
      </radialGradient>
    </defs>
  <rect x="16" y="16" width="480" height="480" rx="112" fill="url(#bg)"/>
  <rect x="16" y="16" width="480" height="480" rx="112" fill="url(#glow)"/>
  
    <g stroke-linecap="round" stroke-linejoin="round">
      <path d="M 138 374 L 256 256 L 374 138" stroke="#ffd23f" stroke-width="22" fill="none"/>
      <rect x="79" y="315" width="118" height="118" rx="24" fill="#f5f9fc"/>
      <rect x="197" y="197" width="118" height="118" rx="24" fill="#f5f9fc"/>
      <rect x="315" y="79" width="118" height="118" rx="24" fill="#f5f9fc"/>
      <circle cx="114" cy="374" r="7.5" fill="#0b6aa8" opacity="0.55"/>
      <circle cx="138" cy="374" r="7.5" fill="#0b6aa8" opacity="0.55"/>
      <circle cx="162" cy="374" r="7.5" fill="#0b6aa8" opacity="0.55"/>
      <circle cx="350" cy="138" r="7.5" fill="#0b6aa8" opacity="0.55"/>
      <circle cx="374" cy="138" r="7.5" fill="#0b6aa8" opacity="0.55"/>
      <circle cx="398" cy="138" r="7.5" fill="#0b6aa8" opacity="0.55"/>
      <path d="M 222 230 L 243 282 L 256 248 L 269 282 L 290 230" stroke="#0b6aa8" stroke-width="15" fill="none"/>
    </g>
</svg>
